<svg width="21" height="23" viewBox="0 0 21 23" fill="none" xmlns="http://www.w3.org/2000/svg">
<path d="M0.226562 15.543C0.226562 18.873 2.36523 21.6172 5.09961 21.6172H8.22461C9.49414 22.2715 11.0176 22.6426 12.6875 22.6426H14.0059C15.2461 22.6426 16.291 22.5742 16.9746 22.3984C18.3711 22.0566 19.25 21.0605 19.25 19.8301C19.25 19.6055 19.2207 19.4004 19.1621 19.2051C19.8066 18.6875 20.1777 17.9453 20.1777 17.1348C20.1777 16.7539 20.0996 16.3828 19.9727 16.0801C20.4121 15.6113 20.6562 14.9473 20.6562 14.2441C20.6562 13.7949 20.5488 13.3262 20.3633 12.9746C20.6172 12.5742 20.7734 12.0176 20.7734 11.4316C20.7734 9.92773 19.6211 8.75586 18.1172 8.75586H14.5918C14.3965 8.75586 14.2695 8.66797 14.2793 8.49219C14.3281 7.51562 15.8613 5.16211 15.8613 3.23828C15.8613 1.82227 14.8652 0.796875 13.498 0.796875C12.502 0.796875 11.8086 1.31445 11.1641 2.55469C9.99219 4.82031 8.54688 6.83203 6.4375 9.41992H4.73828C2.17969 9.41992 0.226562 12.1445 0.226562 15.543ZM6.125 15.4648C6.125 13.4531 6.57422 12.1641 7.85352 10.4453C9.28906 8.53125 11.2812 6.22656 12.707 3.375C13.0195 2.75977 13.2148 2.62305 13.5176 2.62305C13.8789 2.62305 14.1133 2.87695 14.1133 3.33594C14.1133 4.75195 12.5117 7.0957 12.5117 8.62891C12.5117 9.77148 13.4297 10.5039 14.6699 10.5039H18.0684C18.6152 10.5039 19.0254 10.9141 19.0254 11.4609C19.0254 11.8613 18.8984 12.1152 18.5762 12.4473C18.3223 12.6816 18.293 13.0332 18.5078 13.2773C18.7812 13.6777 18.8984 13.9219 18.8984 14.2441C18.8984 14.6348 18.7129 14.9668 18.332 15.2598C18.0098 15.4844 17.9023 15.8555 18.0781 16.2363C18.293 16.627 18.3906 16.8223 18.3906 17.1152C18.3906 17.5742 18.0977 17.916 17.502 18.2383C17.1992 18.4043 17.1211 18.7266 17.248 19.0195C17.4434 19.5176 17.4727 19.6055 17.4727 19.8203C17.4727 20.2207 17.1699 20.543 16.5352 20.6992C15.9883 20.8457 15.0898 20.9043 13.918 20.9043H12.7852C8.79102 20.8945 6.125 18.6387 6.125 15.4648ZM1.94531 15.543C1.94531 13.1406 3.18555 11.2168 4.60156 11.1582C4.8457 11.1582 5.08984 11.1582 5.33398 11.1484C4.66992 12.4668 4.37695 13.8242 4.37695 15.4648C4.37695 17.1934 4.97266 18.7168 6.06641 19.918C5.71484 19.918 5.36328 19.918 5.00195 19.918C3.35156 19.8594 1.94531 17.916 1.94531 15.543Z" fill="#F2F2F7"/>
</svg>
