<svg width="18" height="24" viewBox="0 0 18 24" fill="none" xmlns="http://www.w3.org/2000/svg">
<path d="M2.76953 21.3828L13.8828 23.3457C16.002 23.7168 17.3008 22.5254 17.3008 20.2305V8.19922C17.3008 7.08594 17.0176 6.34375 16.4316 5.82617V4.01953C16.4316 1.83203 14.9473 0.767578 12.4863 1.20703L2.4668 2.97461C1.37305 3.11133 0.689453 3.94141 0.689453 5.20117V18.9805C0.689453 20.3184 1.40234 21.1387 2.76953 21.3828ZM14.127 4.9082L7.86719 3.80469L13.0918 2.92578C14.0098 2.76953 14.5762 3.15039 14.5762 3.94141V4.99609C14.4297 4.95703 14.2832 4.92773 14.127 4.9082ZM3.32617 19.4883C2.86719 19.4004 2.64258 19.1172 2.64258 18.6484V5.65039C2.64258 5.15234 2.97461 4.89844 3.52148 4.98633L13.9902 6.83203C14.8789 6.98828 15.3477 7.35938 15.3477 8.16992V20.0352C15.3477 21.0215 14.7715 21.5098 13.8438 21.3438L3.32617 19.4883ZM5.03516 9.3125L12.3203 10.6016C12.8086 10.6895 13.1406 10.377 13.1406 9.91797C13.1406 9.51758 12.9355 9.29297 12.5547 9.22461L5.30859 7.94531C4.82031 7.86719 4.46875 8.16016 4.46875 8.60938C4.46875 8.98047 4.67383 9.25391 5.03516 9.3125ZM5.03516 13.0918L12.3203 14.3809C12.8086 14.459 13.1406 14.1465 13.1406 13.6973C13.1406 13.2871 12.9355 13.0625 12.5547 12.9941L5.30859 11.7246C4.82031 11.6367 4.46875 11.9395 4.46875 12.3789C4.46875 12.7598 4.67383 13.0234 5.03516 13.0918Z" fill="#8E8E93"/>
</svg>
