<svg width="21" height="22" viewBox="0 0 21 22" fill="none" xmlns="http://www.w3.org/2000/svg">
<path d="M10.1902 21.0469C15.7273 21.0469 20.2977 16.4766 20.2977 10.9492C20.2977 5.42188 15.7176 0.851562 10.1805 0.851562C4.65312 0.851562 0.0925779 5.42188 0.0925779 10.9492C0.0925779 16.4766 4.66289 21.0469 10.1902 21.0469ZM10.1902 14.3281C7.43633 14.3281 5.29766 15.3145 4.2625 16.4473C2.93437 15.0117 2.12383 13.0781 2.12383 10.9492C2.12383 6.4668 5.70781 2.87305 10.1805 2.87305C14.6629 2.87305 18.2664 6.4668 18.2762 10.9492C18.2762 13.0781 17.4656 15.0117 16.1277 16.457C15.0926 15.3145 12.9539 14.3281 10.1902 14.3281ZM10.1902 12.7266C12.0848 12.7461 13.5594 11.125 13.5594 9.03516C13.5594 7.0625 12.075 5.41211 10.1902 5.41211C8.31523 5.41211 6.82109 7.0625 6.83086 9.03516C6.84062 11.125 8.30547 12.7168 10.1902 12.7266Z" fill="#8E8E93"/>
</svg>
