<svg width="24" height="24" viewBox="0 0 24 24" fill="none" xmlns="http://www.w3.org/2000/svg">
<path d="M12 22.0371C17.5176 22.0371 22.0879 17.4766 22.0879 11.9492C22.0879 6.43164 17.5176 1.86133 11.9902 1.86133C6.47266 1.86133 1.91211 6.43164 1.91211 11.9492C1.91211 17.4766 6.48242 22.0371 12 22.0371ZM12 15.3184C9.2168 15.3184 7.06836 16.3047 6.04297 17.4473C4.71484 16.0117 3.9043 14.0781 3.9043 11.9492C3.9043 7.45703 7.49805 3.85352 11.9902 3.85352C16.4824 3.85352 20.1055 7.45703 20.1055 11.9492C20.1055 14.0781 19.2949 16.0117 17.957 17.4473C16.9316 16.3047 14.7832 15.3184 12 15.3184ZM12 13.7168C13.8945 13.7266 15.3594 12.1152 15.3594 10.0156C15.3594 8.04297 13.8848 6.40234 12 6.40234C10.125 6.40234 8.63086 8.04297 8.64062 10.0156C8.65039 12.1152 10.1152 13.6973 12 13.7168Z" fill="#F2F2F7"/>
</svg>
