<svg width="74" height="74" viewBox="0 0 74 74" fill="none" xmlns="http://www.w3.org/2000/svg">
<path d="M61.3893 47.8228H47.4218C46.604 47.8228 45.8197 48.1477 45.2415 48.7259C44.6633 49.3042 44.3384 50.0884 44.3384 50.9062C44.3384 51.7239 44.6633 52.5082 45.2415 53.0864C45.8197 53.6646 46.604 53.9895 47.4218 53.9895H54.8218C51.4207 57.5438 47.0345 59.9999 42.2268 61.0423C37.4192 62.0847 32.4096 61.6658 27.8419 59.8393C23.2741 58.0129 19.3568 54.8624 16.5933 50.7926C13.8298 46.7228 12.3463 41.9197 12.3334 37.0003C12.3334 36.1826 12.0086 35.3983 11.4303 34.8201C10.8521 34.2418 10.0678 33.917 9.25008 33.917C8.43233 33.917 7.64807 34.2418 7.06984 34.8201C6.4916 35.3983 6.16675 36.1826 6.16675 37.0003C6.18305 43.0215 7.96193 48.9061 11.2839 53.9279C14.6058 58.9498 19.3254 62.8891 24.8602 65.2598C30.395 67.6304 36.5028 68.3287 42.4299 67.2683C48.3569 66.2079 53.8438 63.4354 58.2134 59.2928V64.7503C58.2134 65.5681 58.5383 66.3523 59.1165 66.9306C59.6947 67.5088 60.479 67.8337 61.2967 67.8337C62.1145 67.8337 62.8988 67.5088 63.477 66.9306C64.0552 66.3523 64.3801 65.5681 64.3801 64.7503V50.8753C64.3725 50.0787 64.0568 49.3159 63.4993 48.7469C62.9417 48.1778 62.1856 47.8467 61.3893 47.8228ZM37.0001 6.16699C29.0956 6.18954 21.5017 9.24698 15.7867 14.7078V9.25033C15.7867 8.43257 15.4619 7.64832 14.8837 7.07008C14.3054 6.49184 13.5212 6.16699 12.7034 6.16699C11.8857 6.16699 11.1014 6.49184 10.5232 7.07008C9.94493 7.64832 9.62008 8.43257 9.62008 9.25033V23.1253C9.62008 23.9431 9.94493 24.7273 10.5232 25.3056C11.1014 25.8838 11.8857 26.2087 12.7034 26.2087H26.5784C27.3962 26.2087 28.1804 25.8838 28.7587 25.3056C29.3369 24.7273 29.6617 23.9431 29.6617 23.1253C29.6617 22.3076 29.3369 21.5233 28.7587 20.9451C28.1804 20.3668 27.3962 20.042 26.5784 20.042H19.1784C22.5777 16.4896 26.961 14.0341 31.7658 12.9907C36.5706 11.9474 41.5776 12.3637 46.144 14.1863C50.7105 16.0089 54.6281 19.1546 57.394 23.2197C60.1598 27.2847 61.6478 32.0836 61.6668 37.0003C61.6668 37.8181 61.9916 38.6023 62.5698 39.1806C63.1481 39.7588 63.9323 40.0837 64.7501 40.0837C65.5678 40.0837 66.3521 39.7588 66.9303 39.1806C67.5086 38.6023 67.8334 37.8181 67.8334 37.0003C67.8334 32.9512 67.0359 28.9418 65.4864 25.2009C63.9369 21.46 61.6657 18.061 58.8025 15.1979C55.9394 12.3347 52.5404 10.0636 48.7995 8.51404C45.0586 6.96452 41.0492 6.16699 37.0001 6.16699V6.16699Z" fill="white"/>
</svg>
