<svg width="42" height="42" viewBox="0 0 42 42" fill="none" xmlns="http://www.w3.org/2000/svg">
<path fill-rule="evenodd" clip-rule="evenodd" d="M26.4644 29.0247C20.0671 34.1485 10.7026 33.7453 4.77228 27.8149C-1.59076 21.4519 -1.59076 11.1353 4.77228 4.77229C11.1353 -1.59076 21.4519 -1.59076 27.8149 4.77229C33.7452 10.7026 34.1485 20.067 29.0247 26.4644L41.4697 38.9095C42.1768 39.6165 42.1768 40.7627 41.4697 41.4697C40.7627 42.1768 39.6165 42.1768 38.9095 41.4697L26.4644 29.0247ZM7.33257 25.2546C2.38354 20.3056 2.38354 12.2816 7.33257 7.33258C12.2816 2.38354 20.3056 2.38354 25.2546 7.33258C30.2 12.278 30.2036 20.2938 25.2655 25.2437C25.2618 25.2473 25.2582 25.2509 25.2546 25.2546C25.2509 25.2582 25.2473 25.2618 25.2437 25.2655C20.2938 30.2037 12.278 30.2 7.33257 25.2546Z" fill="white"/>
</svg>
