<svg width="60" height="60" viewBox="0 0 60 60" fill="none" xmlns="http://www.w3.org/2000/svg">
<path d="M21.1502 28.225L35.3002 14.1C35.5326 13.8656 35.8091 13.6797 36.1137 13.5527C36.4184 13.4258 36.7451 13.3605 37.0752 13.3605C37.4052 13.3605 37.732 13.4258 38.0366 13.5527C38.3413 13.6797 38.6178 13.8656 38.8502 14.1C39.3158 14.5684 39.5771 15.202 39.5771 15.8625C39.5771 16.5229 39.3158 17.1566 38.8502 17.625L26.4752 30.125L38.8502 42.5C39.3158 42.9684 39.5771 43.602 39.5771 44.2625C39.5771 44.9229 39.3158 45.5566 38.8502 46.025C38.6186 46.2612 38.3425 46.4491 38.0378 46.5779C37.7331 46.7066 37.4059 46.7736 37.0752 46.775C36.7444 46.7736 36.4172 46.7066 36.1125 46.5779C35.8078 46.4491 35.5317 46.2612 35.3002 46.025L21.1502 31.9C20.8964 31.6659 20.6939 31.3817 20.5554 31.0655C20.4168 30.7492 20.3453 30.4077 20.3453 30.0625C20.3453 29.7172 20.4168 29.3757 20.5554 29.0595C20.6939 28.7432 20.8964 28.4591 21.1502 28.225Z" fill="white"/>
</svg>
