<svg xmlns="http://www.w3.org/2000/svg" viewBox="0 0 64 64"><path d="M35.293,33.707a.99962.99962,0,0,0,1.41406,0l5-5a.99962.99962,0,0,0,0-1.41406l-5-5a.99962.99962,0,0,0-1.41406,0l-5,5a.99962.99962,0,0,0,0,1.41406Zm.707-9.293L39.58594,28,36,31.58594,32.41406,28Z"/><path d="M52,11H12a.99974.99974,0,0,0-1,1V52a.99974.99974,0,0,0,1,1H52a.99974.99974,0,0,0,1-1V12A.99974.99974,0,0,0,52,11ZM29,13h6v6H29Zm-8,0h6v6H21ZM19,51H13V45h6Zm0-8H13V37h6Zm0-8H13V29h6Zm0-8H13V21h6Zm0-8H13V13h6Zm8,32H21V45h6Zm8,0H29V45h6Zm8,0H37V45h6Zm0-8H21V21H43Zm0-24H37V13h6Zm8,32H45V45h6Zm0-8H45V37h6Zm0-8H45V29h6Zm0-8H45V21h6Zm0-8H45V13h6Z"/><path d="M58,2H6A4.00427,4.00427,0,0,0,2,6V58a4.00427,4.00427,0,0,0,4,4H58a4.00427,4.00427,0,0,0,4-4V6A4.00427,4.00427,0,0,0,58,2Zm2,56a2.00229,2.00229,0,0,1-2,2H6a2.00229,2.00229,0,0,1-2-2V6A2.00229,2.00229,0,0,1,6,4H58a2.00229,2.00229,0,0,1,2,2Z"/><path d="M33,35.99988a5.00015,5.00015,0,0,0-10,.0002A5.00015,5.00015,0,0,0,33,35.99988ZM28.00012,33A3.00019,3.00019,0,0,1,28,39,3.00019,3.00019,0,0,1,28.00012,33Z"/></svg>