<svg width="42" height="42" viewBox="0 0 42 42" fill="none" xmlns="http://www.w3.org/2000/svg">
<path d="M33.25 3.5H8.75C7.35761 3.5 6.02226 4.05312 5.03769 5.03769C4.05312 6.02226 3.5 7.35761 3.5 8.75V10.7975C3.49975 11.5202 3.64869 12.2351 3.9375 12.8975V13.0025C4.18474 13.5642 4.53494 14.0747 4.97 14.5075L15.75 25.2175V36.75C15.7494 37.0474 15.8246 37.3401 15.9685 37.6003C16.1124 37.8606 16.3203 38.0799 16.5725 38.2375C16.851 38.4101 17.1724 38.5011 17.5 38.5C17.7739 38.4984 18.0437 38.4324 18.2875 38.3075L25.2875 34.8075C25.5761 34.6621 25.8188 34.4396 25.9887 34.1647C26.1586 33.8898 26.249 33.5732 26.25 33.25V25.2175L36.96 14.5075C37.3951 14.0747 37.7453 13.5642 37.9925 13.0025V12.8975C38.3054 12.2403 38.4782 11.5251 38.5 10.7975V8.75C38.5 7.35761 37.9469 6.02226 36.9623 5.03769C35.9777 4.05312 34.6424 3.5 33.25 3.5ZM23.2575 23.2575C23.0953 23.421 22.967 23.615 22.8799 23.8282C22.7928 24.0414 22.7487 24.2697 22.75 24.5V32.165L19.25 33.915V24.5C19.2513 24.2697 19.2072 24.0414 19.1201 23.8282C19.033 23.615 18.9047 23.421 18.7425 23.2575L9.4675 14H32.5325L23.2575 23.2575ZM35 10.5H7V8.75C7 8.28587 7.18438 7.84075 7.51256 7.51256C7.84075 7.18438 8.28587 7 8.75 7H33.25C33.7141 7 34.1593 7.18438 34.4874 7.51256C34.8156 7.84075 35 8.28587 35 8.75V10.5Z" fill="#545454"/>
</svg>
