<svg width="25" height="22" viewBox="0 0 25 22" fill="none" xmlns="http://www.w3.org/2000/svg">
<path d="M0.589974 10.4609C0.589974 10.9688 0.980599 11.4082 1.6056 11.4082C1.90833 11.4082 2.18177 11.2422 2.42591 11.0469L12.1134 2.91211C12.3868 2.67773 12.6993 2.67773 12.9728 2.91211L22.6505 11.0469C22.8849 11.2422 23.1583 11.4082 23.4611 11.4082C24.0372 11.4082 24.4767 11.0469 24.4767 10.4805C24.4767 10.1484 24.3497 9.88477 24.0958 9.66992L21.3517 7.36523V3.30273C21.3517 2.86328 21.0685 2.58984 20.629 2.58984H19.2814C18.8517 2.58984 18.5587 2.86328 18.5587 3.30273V5.01172L13.9298 1.125C13.0802 0.412109 12.006 0.412109 11.1564 1.125L0.980599 9.66992C0.716928 9.88477 0.589974 10.1777 0.589974 10.4609ZM3.7638 19.2402C3.7638 20.6465 4.64271 21.4961 6.09779 21.4961H18.9786C20.424 21.4961 21.3126 20.6465 21.3126 19.2402V11.8184L13.1388 4.97266C12.7579 4.64062 12.299 4.65039 11.9279 4.97266L3.7638 11.8184V19.2402ZM15.1017 19.6602H9.97474V13.4102C9.97474 12.9512 10.2775 12.6582 10.7365 12.6582H14.3497C14.8087 12.6582 15.1017 12.9512 15.1017 13.4102V19.6602Z" fill="#F2F2F7"/>
</svg>
