<svg width="21" height="22" viewBox="0 0 21 22" fill="none" xmlns="http://www.w3.org/2000/svg">
<path d="M5.5 14.4844C5.49023 18.2051 8.42969 21.0371 13.1074 21.0469H14.4648C15.7441 21.0469 16.7207 20.9492 17.2871 20.8027C18.127 20.5977 18.8789 20.0703 18.8789 19.1035C18.8789 18.7324 18.7812 18.4492 18.6641 18.2344C18.5957 18.127 18.6152 18.0293 18.7129 17.9902C19.3574 17.6973 19.8457 17.1016 19.8457 16.3203C19.8457 15.8711 19.7188 15.4707 19.5039 15.1875C19.4062 15.0508 19.4258 14.9336 19.582 14.8457C20.0312 14.5625 20.3438 13.9863 20.3438 13.332C20.3438 12.8535 20.1973 12.3555 19.9434 12.1016C19.8066 11.9746 19.8262 11.8867 19.9727 11.7695C20.2852 11.4863 20.4805 11.0176 20.4805 10.4512C20.4805 9.44531 19.6895 8.625 18.6543 8.625H15.1289C14.2793 8.625 13.7227 8.19531 13.7227 7.50195C13.7227 6.18359 15.3926 3.72266 15.3926 1.93555C15.3926 0.96875 14.7773 0.382812 13.9375 0.382812C13.2051 0.382812 12.8242 0.861328 12.4141 1.67188C10.9199 4.55273 8.94727 6.89648 7.43359 8.9082C6.11523 10.6465 5.50977 12.1406 5.5 14.4844ZM0.519531 14.5625C0.519531 17.5898 2.4043 20.0898 4.91406 20.0898H6.61328C4.8457 18.7422 4.06445 16.7402 4.08398 14.4648C4.09375 12.0039 4.97266 10.2168 5.90039 8.99609H4.54297C2.26758 8.99609 0.519531 11.4375 0.519531 14.5625Z" fill="#F2F2F7"/>
</svg>
