<svg width="42" height="42" viewBox="0 0 42 42" fill="none" xmlns="http://www.w3.org/2000/svg">
<path d="M37.31 8.8375L26.81 5.3375H26.6875C26.606 5.32932 26.524 5.32932 26.4425 5.3375H26.04H25.8125H25.69L15.75 8.75L5.81001 5.3375C5.54683 5.25072 5.26681 5.22768 4.99299 5.27028C4.71917 5.31287 4.45938 5.41988 4.23501 5.5825C4.00883 5.74353 3.82422 5.95606 3.69642 6.20254C3.56861 6.44902 3.50129 6.72237 3.50001 7V31.5C3.49906 31.8669 3.61344 32.2248 3.82698 32.5231C4.04052 32.8214 4.34242 33.0451 4.69001 33.1625L15.19 36.6625C15.5425 36.7775 15.9225 36.7775 16.275 36.6625L26.25 33.3375L36.19 36.75C36.3758 36.7752 36.5642 36.7752 36.75 36.75C37.1159 36.7552 37.4731 36.6381 37.765 36.4175C37.9912 36.2565 38.1758 36.0439 38.3036 35.7975C38.4314 35.551 38.4987 35.2776 38.5 35V10.5C38.5009 10.1331 38.3866 9.77523 38.173 9.4769C37.9595 9.17858 37.6576 8.9549 37.31 8.8375ZM14 32.5675L7.00001 30.24V9.4325L14 11.76V32.5675ZM24.5 30.24L17.5 32.5675V11.76L24.5 9.4325V30.24ZM35 32.5675L28 30.24V9.4325L35 11.76V32.5675Z" fill="#545454"/>
</svg>
