<svg width="37" height="37" viewBox="0 0 37 37" fill="none" xmlns="http://www.w3.org/2000/svg">
<path d="M32.8683 14.7226L29.9545 13.7513L31.3266 11.0072C31.4657 10.7199 31.5122 10.3966 31.4597 10.0818C31.4073 9.76703 31.2584 9.47628 31.0337 9.24968L27.7499 5.96593C27.5221 5.7379 27.2286 5.587 26.9106 5.53446C26.5925 5.48191 26.2661 5.53037 25.977 5.67301L23.2328 7.0451L22.2616 4.13135C22.159 3.82763 21.9643 3.56344 21.7046 3.37554C21.4448 3.18765 21.133 3.08539 20.8124 3.08301H16.1874C15.8642 3.08218 15.5489 3.18294 15.2861 3.37106C15.0233 3.55918 14.8263 3.82514 14.7228 4.13135L13.7516 7.0451L11.0074 5.67301C10.7202 5.53392 10.3969 5.4874 10.0821 5.53987C9.76728 5.59233 9.47652 5.7412 9.24992 5.96593L5.96617 9.24968C5.73814 9.47748 5.58724 9.77103 5.5347 10.089C5.48216 10.4071 5.53062 10.7335 5.67326 11.0226L7.04534 13.7668L4.13159 14.738C3.82787 14.8406 3.56368 15.0353 3.37579 15.295C3.18789 15.5548 3.08564 15.8666 3.08326 16.1872V20.8122C3.08242 21.1354 3.18319 21.4507 3.37131 21.7135C3.55942 21.9763 3.82538 22.1733 4.13159 22.2768L7.04534 23.248L5.67326 25.9922C5.53417 26.2794 5.48765 26.6027 5.54011 26.9175C5.59258 27.2323 5.74145 27.5231 5.96617 27.7497L9.24992 31.0334C9.47773 31.2615 9.77128 31.4124 10.0893 31.4649C10.4073 31.5174 10.7338 31.469 11.0228 31.3263L13.767 29.9543L14.7383 32.868C14.8417 33.1742 15.0387 33.4402 15.3015 33.6283C15.5644 33.8164 15.8796 33.9172 16.2028 33.9163H20.8278C21.151 33.9172 21.4663 33.8164 21.7291 33.6283C21.992 33.4402 22.189 33.1742 22.2924 32.868L23.2637 29.9543L26.0078 31.3263C26.2932 31.4619 26.6134 31.5065 26.925 31.4541C27.2366 31.4018 27.5246 31.2549 27.7499 31.0334L31.0337 27.7497C31.2617 27.5219 31.4126 27.2283 31.4651 26.9103C31.5177 26.5923 31.4692 26.2658 31.3266 25.9768L29.9545 23.2326L32.8683 22.2613C33.172 22.1588 33.4362 21.9641 33.6241 21.7043C33.812 21.4446 33.9142 21.1327 33.9166 20.8122V16.1872C33.9174 15.864 33.8167 15.5487 33.6285 15.2859C33.4404 15.0231 33.1745 14.826 32.8683 14.7226ZM30.8333 19.7022L28.9833 20.3188C28.5578 20.4568 28.1675 20.6857 27.8394 20.9896C27.5113 21.2935 27.2532 21.6652 27.0831 22.0788C26.913 22.4924 26.8348 22.9381 26.8541 23.3849C26.8735 23.8317 26.9897 24.269 27.1949 24.6663L28.0737 26.4238L26.3778 28.1197L24.6666 27.1947C24.2712 26.9977 23.8382 26.888 23.3967 26.8729C22.9553 26.8579 22.5158 26.9378 22.1079 27.1074C21.7001 27.277 21.3334 27.5322 21.0328 27.8558C20.7321 28.1794 20.5045 28.5638 20.3653 28.983L19.7487 30.833H17.2974L16.6808 28.983C16.5428 28.5576 16.3139 28.1673 16.01 27.8392C15.7061 27.5111 15.3344 27.253 14.9208 27.0828C14.5072 26.9127 14.0615 26.8346 13.6147 26.8539C13.1679 26.8732 12.7306 26.9895 12.3333 27.1947L10.5758 28.0734L8.87992 26.3776L9.80492 24.6663C10.0101 24.269 10.1264 23.8317 10.1457 23.3849C10.165 22.9381 10.0869 22.4924 9.91675 22.0788C9.74662 21.6652 9.48854 21.2935 9.16042 20.9896C8.83231 20.6857 8.442 20.4568 8.01659 20.3188L6.16659 19.7022V17.2972L8.01659 16.6805C8.442 16.5425 8.83231 16.3136 9.16042 16.0097C9.48854 15.7058 9.74662 15.3342 9.91675 14.9206C10.0869 14.507 10.165 14.0613 10.1457 13.6145C10.1264 13.1677 10.0101 12.7304 9.80492 12.333L8.92617 10.6218L10.622 8.92593L12.3333 9.80468C12.7306 10.0099 13.1679 10.1261 13.6147 10.1455C14.0615 10.1648 14.5072 10.0866 14.9208 9.91651C15.3344 9.74637 15.7061 9.4883 16.01 9.16018C16.3139 8.83206 16.5428 8.44176 16.6808 8.01635L17.2974 6.16635H19.7024L20.3191 8.01635C20.4571 8.44176 20.686 8.83206 20.9899 9.16018C21.2938 9.4883 21.6654 9.74637 22.079 9.91651C22.4926 10.0866 22.9383 10.1648 23.3851 10.1455C23.8319 10.1261 24.2692 10.0099 24.6666 9.80468L26.4241 8.92593L28.1199 10.6218L27.1949 12.333C26.998 12.7284 26.8882 13.1614 26.8732 13.6029C26.8581 14.0443 26.9381 14.4838 27.1077 14.8917C27.2772 15.2995 27.5325 15.6662 27.856 15.9668C28.1796 16.2675 28.5641 16.4951 28.9833 16.6343L30.8333 17.2509V19.7022ZM18.4999 12.333C17.2803 12.333 16.088 12.6947 15.0739 13.3723C14.0598 14.0499 13.2694 15.013 12.8027 16.1398C12.3359 17.2666 12.2138 18.5065 12.4517 19.7027C12.6897 20.899 13.277 21.9977 14.1394 22.8602C15.0019 23.7226 16.1006 24.3099 17.2969 24.5479C18.4931 24.7858 19.733 24.6637 20.8598 24.1969C21.9866 23.7302 22.9497 22.9398 23.6273 21.9257C24.3049 20.9116 24.6666 19.7193 24.6666 18.4997C24.6666 16.8642 24.0169 15.2957 22.8604 14.1392C21.7039 12.9827 20.1354 12.333 18.4999 12.333V12.333ZM18.4999 21.583C17.8901 21.583 17.294 21.4022 16.7869 21.0634C16.2799 20.7246 15.8847 20.243 15.6513 19.6796C15.4179 19.1162 15.3569 18.4963 15.4758 17.8982C15.5948 17.3 15.8885 16.7506 16.3197 16.3194C16.7509 15.8882 17.3003 15.5946 17.8984 15.4756C18.4965 15.3566 19.1165 15.4177 19.6799 15.651C20.2433 15.8844 20.7248 16.2796 21.0636 16.7867C21.4024 17.2937 21.5833 17.8899 21.5833 18.4997C21.5833 19.3174 21.2584 20.1017 20.6802 20.6799C20.1019 21.2582 19.3177 21.583 18.4999 21.583Z" fill="white"/>
</svg>
