<svg width="19" height="24" viewBox="0 0 19 24" fill="none" xmlns="http://www.w3.org/2000/svg">
<path d="M9.49023 15.5273C9.98828 15.5273 10.3984 15.1172 10.3984 14.6387V4.80469L10.3203 3.34961L10.9258 4.0625L12.3027 5.52734C12.459 5.70312 12.6836 5.79102 12.9082 5.79102C13.3477 5.79102 13.709 5.46875 13.709 5.00977C13.709 4.77539 13.6211 4.59961 13.4551 4.43359L10.1738 1.2793C9.94922 1.04492 9.73438 0.966797 9.49023 0.966797C9.25586 0.966797 9.04102 1.04492 8.81641 1.2793L5.53516 4.43359C5.36914 4.59961 5.27148 4.77539 5.27148 5.00977C5.27148 5.46875 5.63281 5.79102 6.07227 5.79102C6.29688 5.79102 6.53125 5.70312 6.6875 5.52734L8.05469 4.0625L8.66992 3.34961L8.5918 4.80469V14.6387C8.5918 15.1172 9.00195 15.5273 9.49023 15.5273ZM3.875 23.3105H15.1152C17.2246 23.3105 18.3184 22.2266 18.3184 20.1465V10.5273C18.3184 8.44727 17.2246 7.36328 15.1152 7.36328H12.4688V9.27734H14.998C15.8965 9.27734 16.4043 9.74609 16.4043 10.6934V19.9805C16.4043 20.9277 15.8965 21.3965 14.998 21.3965H3.99219C3.08398 21.3965 2.58594 20.9277 2.58594 19.9805V10.6934C2.58594 9.74609 3.08398 9.27734 3.99219 9.27734H6.54102V7.36328H3.875C1.76562 7.36328 0.671875 8.44727 0.671875 10.5273V20.1465C0.671875 22.2266 1.76562 23.3105 3.875 23.3105Z" fill="#F2F2F7"/>
</svg>
